<?xml version="1.0" encoding="UTF-8" standalone="no"?>
<!DOCTYPE svg PUBLIC "-//W3C//DTD SVG 1.1//EN"
 "http://www.w3.org/Graphics/SVG/1.1/DTD/svg11.dtd">
<!-- Generated by graphviz version 14.1.0 (20251206.1807)
 -->
<!-- Title: AdvanceContext Pages: 1 -->
<svg width="247pt" height="362pt"
 viewBox="0.00 0.00 247.00 362.00" xmlns="http://www.w3.org/2000/svg" xmlns:xlink="http://www.w3.org/1999/xlink">
<g id="graph0" class="graph" transform="scale(1 1) rotate(0) translate(21.6 340.2)">
<title>AdvanceContext</title>
<!-- Current[MaxThreads] -->
<g id="node1" class="node">
<title>Current[MaxThreads]</title>
<path fill="#2d2d2d" stroke="#b39ddb" d="M182.85,-318.6C182.85,-318.6 21,-318.6 21,-318.6 15,-318.6 9,-312.6 9,-306.6 9,-306.6 9,-272.4 9,-272.4 9,-266.4 15,-260.4 21,-260.4 21,-260.4 182.85,-260.4 182.85,-260.4 188.85,-260.4 194.85,-266.4 194.85,-272.4 194.85,-272.4 194.85,-306.6 194.85,-306.6 194.85,-312.6 188.85,-318.6 182.85,-318.6"/>
<text xml:space="preserve" text-anchor="middle" x="101.92" y="-283.7" font-family="sans-serif" font-size="14.00" fill="#e0e0e0">Current[MaxThreads]</text>
</g>
<!-- Advancing[MaxThreads] -->
<g id="node2" class="node">
<title>Advancing[MaxThreads]</title>
<path fill="#2d2d2d" stroke="#b39ddb" d="M191.85,-188.4C191.85,-188.4 12,-188.4 12,-188.4 6,-188.4 0,-182.4 0,-176.4 0,-176.4 0,-142.2 0,-142.2 0,-136.2 6,-130.2 12,-130.2 12,-130.2 191.85,-130.2 191.85,-130.2 197.85,-130.2 203.85,-136.2 203.85,-142.2 203.85,-142.2 203.85,-176.4 203.85,-176.4 203.85,-182.4 197.85,-188.4 191.85,-188.4"/>
<text xml:space="preserve" text-anchor="middle" x="101.92" y="-153.5" font-family="sans-serif" font-size="14.00" fill="#e0e0e0">Advancing[MaxThreads]</text>
</g>
<!-- Current[MaxThreads]&#45;&gt;Advancing[MaxThreads] -->
<g id="edge1" class="edge">
<title>Current[MaxThreads]&#45;&gt;Advancing[MaxThreads]</title>
<path fill="none" stroke="#b0b0b0" d="M101.92,-260.05C101.92,-242.37 101.92,-219.39 101.92,-199.95"/>
<polygon fill="#b0b0b0" stroke="#b0b0b0" points="105.43,-200.19 101.93,-190.19 98.43,-200.19 105.43,-200.19"/>
</g>
<!-- Advanced[MaxThreads] -->
<g id="node3" class="node">
<title>Advanced[MaxThreads]</title>
<path fill="#2d2d2d" stroke="#b39ddb" d="M190.35,-58.2C190.35,-58.2 13.5,-58.2 13.5,-58.2 7.5,-58.2 1.5,-52.2 1.5,-46.2 1.5,-46.2 1.5,-12 1.5,-12 1.5,-6 7.5,0 13.5,0 13.5,0 190.35,0 190.35,0 196.35,0 202.35,-6 202.35,-12 202.35,-12 202.35,-46.2 202.35,-46.2 202.35,-52.2 196.35,-58.2 190.35,-58.2"/>
<text xml:space="preserve" text-anchor="middle" x="101.92" y="-23.3" font-family="sans-serif" font-size="14.00" fill="#e0e0e0">Advanced[MaxThreads]</text>
</g>
<!-- Advancing[MaxThreads]&#45;&gt;Advanced[MaxThreads] -->
<g id="edge2" class="edge">
<title>Advancing[MaxThreads]&#45;&gt;Advanced[MaxThreads]</title>
<path fill="none" stroke="#b0b0b0" d="M101.92,-129.85C101.92,-112.17 101.92,-89.19 101.92,-69.75"/>
<polygon fill="#b0b0b0" stroke="#b0b0b0" points="105.43,-69.99 101.93,-59.99 98.43,-69.99 105.43,-69.99"/>
</g>
</g>
</svg>
