<?xml version="1.0" encoding="UTF-8" standalone="no"?>
<!DOCTYPE svg PUBLIC "-//W3C//DTD SVG 1.1//EN"
 "http://www.w3.org/Graphics/SVG/1.1/DTD/svg11.dtd">
<!-- Generated by graphviz version 14.1.0 (20251206.1807)
 -->
<!-- Title: ReclaimContext Pages: 1 -->
<svg width="583pt" height="362pt"
 viewBox="0.00 0.00 583.00 362.00" xmlns="http://www.w3.org/2000/svg" xmlns:xlink="http://www.w3.org/1999/xlink">
<g id="graph0" class="graph" transform="scale(1 1) rotate(0) translate(21.6 340.2)">
<title>ReclaimContext</title>
<!-- ReclaimStart[MaxThreads] -->
<g id="node1" class="node">
<title>ReclaimStart[MaxThreads]</title>
<path fill="#2d2d2d" stroke="#b39ddb" d="M365.1,-318.6C365.1,-318.6 170.25,-318.6 170.25,-318.6 164.25,-318.6 158.25,-312.6 158.25,-306.6 158.25,-306.6 158.25,-272.4 158.25,-272.4 158.25,-266.4 164.25,-260.4 170.25,-260.4 170.25,-260.4 365.1,-260.4 365.1,-260.4 371.1,-260.4 377.1,-266.4 377.1,-272.4 377.1,-272.4 377.1,-306.6 377.1,-306.6 377.1,-312.6 371.1,-318.6 365.1,-318.6"/>
<text xml:space="preserve" text-anchor="middle" x="267.68" y="-283.7" font-family="sans-serif" font-size="14.00" fill="#e0e0e0">ReclaimStart[MaxThreads]</text>
</g>
<!-- EpochsLoaded[MaxThreads] -->
<g id="node2" class="node">
<title>EpochsLoaded[MaxThreads]</title>
<path fill="#2d2d2d" stroke="#b39ddb" d="M371.1,-188.4C371.1,-188.4 164.25,-188.4 164.25,-188.4 158.25,-188.4 152.25,-182.4 152.25,-176.4 152.25,-176.4 152.25,-142.2 152.25,-142.2 152.25,-136.2 158.25,-130.2 164.25,-130.2 164.25,-130.2 371.1,-130.2 371.1,-130.2 377.1,-130.2 383.1,-136.2 383.1,-142.2 383.1,-142.2 383.1,-176.4 383.1,-176.4 383.1,-182.4 377.1,-188.4 371.1,-188.4"/>
<text xml:space="preserve" text-anchor="middle" x="267.68" y="-153.5" font-family="sans-serif" font-size="14.00" fill="#e0e0e0">EpochsLoaded[MaxThreads]</text>
</g>
<!-- ReclaimStart[MaxThreads]&#45;&gt;EpochsLoaded[MaxThreads] -->
<g id="edge1" class="edge">
<title>ReclaimStart[MaxThreads]&#45;&gt;EpochsLoaded[MaxThreads]</title>
<path fill="none" stroke="#b0b0b0" d="M267.68,-260.05C267.68,-242.37 267.68,-219.39 267.68,-199.95"/>
<polygon fill="#b0b0b0" stroke="#b0b0b0" points="271.18,-200.19 267.68,-190.19 264.18,-200.19 271.18,-200.19"/>
</g>
<!-- ReclaimReady[MaxThreads] -->
<g id="node3" class="node">
<title>ReclaimReady[MaxThreads]</title>
<path fill="#2d2d2d" stroke="#b39ddb" d="M217.35,-58.2C217.35,-58.2 12,-58.2 12,-58.2 6,-58.2 0,-52.2 0,-46.2 0,-46.2 0,-12 0,-12 0,-6 6,0 12,0 12,0 217.35,0 217.35,0 223.35,0 229.35,-6 229.35,-12 229.35,-12 229.35,-46.2 229.35,-46.2 229.35,-52.2 223.35,-58.2 217.35,-58.2"/>
<text xml:space="preserve" text-anchor="middle" x="114.68" y="-23.3" font-family="sans-serif" font-size="14.00" fill="#e0e0e0">ReclaimReady[MaxThreads]</text>
</g>
<!-- EpochsLoaded[MaxThreads]&#45;&gt;ReclaimReady[MaxThreads] -->
<g id="edge2" class="edge">
<title>EpochsLoaded[MaxThreads]&#45;&gt;ReclaimReady[MaxThreads]</title>
<path fill="none" stroke="#b0b0b0" d="M233.72,-129.85C211.22,-110.99 181.51,-86.1 157.4,-65.9"/>
<polygon fill="#b0b0b0" stroke="#b0b0b0" points="159.87,-63.41 149.96,-59.67 155.38,-68.77 159.87,-63.41"/>
</g>
<!-- ReclaimBlocked[MaxThreads] -->
<g id="node4" class="node">
<title>ReclaimBlocked[MaxThreads]</title>
<path fill="#2d2d2d" stroke="#b39ddb" d="M527.85,-58.2C527.85,-58.2 313.5,-58.2 313.5,-58.2 307.5,-58.2 301.5,-52.2 301.5,-46.2 301.5,-46.2 301.5,-12 301.5,-12 301.5,-6 307.5,0 313.5,0 313.5,0 527.85,0 527.85,0 533.85,0 539.85,-6 539.85,-12 539.85,-12 539.85,-46.2 539.85,-46.2 539.85,-52.2 533.85,-58.2 527.85,-58.2"/>
<text xml:space="preserve" text-anchor="middle" x="420.68" y="-23.3" font-family="sans-serif" font-size="14.00" fill="#e0e0e0">ReclaimBlocked[MaxThreads]</text>
</g>
<!-- EpochsLoaded[MaxThreads]&#45;&gt;ReclaimBlocked[MaxThreads] -->
<g id="edge3" class="edge">
<title>EpochsLoaded[MaxThreads]&#45;&gt;ReclaimBlocked[MaxThreads]</title>
<path fill="none" stroke="#b0b0b0" d="M301.63,-129.85C324.13,-110.99 353.84,-86.1 377.95,-65.9"/>
<polygon fill="#b0b0b0" stroke="#b0b0b0" points="379.97,-68.77 385.39,-59.67 375.48,-63.41 379.97,-68.77"/>
</g>
</g>
</svg>
