<?xml version="1.0" encoding="UTF-8" standalone="no"?>
<!DOCTYPE svg PUBLIC "-//W3C//DTD SVG 1.1//EN"
 "http://www.w3.org/Graphics/SVG/1.1/DTD/svg11.dtd">
<!-- Generated by graphviz version 14.1.0 (20251206.1807)
 -->
<!-- Title: RegistrationContext Pages: 1 -->
<svg width="556pt" height="232pt"
 viewBox="0.00 0.00 556.00 232.00" xmlns="http://www.w3.org/2000/svg" xmlns:xlink="http://www.w3.org/1999/xlink">
<g id="graph0" class="graph" transform="scale(1 1) rotate(0) translate(21.6 210)">
<title>RegistrationContext</title>
<!-- Unregistered[MaxThreads] -->
<g id="node1" class="node">
<title>Unregistered[MaxThreads]</title>
<path fill="#2d2d2d" stroke="#b39ddb" d="M346.1,-188.4C346.1,-188.4 152,-188.4 152,-188.4 146,-188.4 140,-182.4 140,-176.4 140,-176.4 140,-142.2 140,-142.2 140,-136.2 146,-130.2 152,-130.2 152,-130.2 346.1,-130.2 346.1,-130.2 352.1,-130.2 358.1,-136.2 358.1,-142.2 358.1,-142.2 358.1,-176.4 358.1,-176.4 358.1,-182.4 352.1,-188.4 346.1,-188.4"/>
<text xml:space="preserve" text-anchor="middle" x="249.05" y="-153.5" font-family="sans-serif" font-size="14.00" fill="#e0e0e0">Unregistered[MaxThreads]</text>
</g>
<!-- Registered[MaxThreads] -->
<g id="node2" class="node">
<title>Registered[MaxThreads]</title>
<path fill="#2d2d2d" stroke="#b39ddb" d="M194.1,-58.2C194.1,-58.2 12,-58.2 12,-58.2 6,-58.2 0,-52.2 0,-46.2 0,-46.2 0,-12 0,-12 0,-6 6,0 12,0 12,0 194.1,0 194.1,0 200.1,0 206.1,-6 206.1,-12 206.1,-12 206.1,-46.2 206.1,-46.2 206.1,-52.2 200.1,-58.2 194.1,-58.2"/>
<text xml:space="preserve" text-anchor="middle" x="103.05" y="-23.3" font-family="sans-serif" font-size="14.00" fill="#e0e0e0">Registered[MaxThreads]</text>
</g>
<!-- Unregistered[MaxThreads]&#45;&gt;Registered[MaxThreads] -->
<g id="edge1" class="edge">
<title>Unregistered[MaxThreads]&#45;&gt;Registered[MaxThreads]</title>
<path fill="none" stroke="#b0b0b0" d="M216.65,-129.85C195.27,-111.08 167.08,-86.32 144.13,-66.17"/>
<polygon fill="#b0b0b0" stroke="#b0b0b0" points="146.57,-63.66 136.75,-59.69 141.96,-68.92 146.57,-63.66"/>
</g>
<!-- RegistrationFull[MaxThreads] -->
<g id="node3" class="node">
<title>RegistrationFull[MaxThreads]</title>
<path fill="#2d2d2d" stroke="#b39ddb" d="M500.35,-58.2C500.35,-58.2 289.75,-58.2 289.75,-58.2 283.75,-58.2 277.75,-52.2 277.75,-46.2 277.75,-46.2 277.75,-12 277.75,-12 277.75,-6 283.75,0 289.75,0 289.75,0 500.35,0 500.35,0 506.35,0 512.35,-6 512.35,-12 512.35,-12 512.35,-46.2 512.35,-46.2 512.35,-52.2 506.35,-58.2 500.35,-58.2"/>
<text xml:space="preserve" text-anchor="middle" x="395.05" y="-23.3" font-family="sans-serif" font-size="14.00" fill="#e0e0e0">RegistrationFull[MaxThreads]</text>
</g>
<!-- Unregistered[MaxThreads]&#45;&gt;RegistrationFull[MaxThreads] -->
<g id="edge2" class="edge">
<title>Unregistered[MaxThreads]&#45;&gt;RegistrationFull[MaxThreads]</title>
<path fill="none" stroke="#b0b0b0" d="M281.45,-129.85C302.83,-111.08 331.02,-86.32 353.97,-66.17"/>
<polygon fill="#b0b0b0" stroke="#b0b0b0" points="356.14,-68.92 361.35,-59.69 351.53,-63.66 356.14,-68.92"/>
</g>
</g>
</svg>
