<?xml version="1.0" encoding="UTF-8" standalone="no"?>
<!DOCTYPE svg PUBLIC "-//W3C//DTD SVG 1.1//EN"
 "http://www.w3.org/Graphics/SVG/1.1/DTD/svg11.dtd">
<!-- Generated by graphviz version 14.1.0 (20251206.1807)
 -->
<!-- Title: StackBase Pages: 1 -->
<svg width="252pt" height="232pt"
 viewBox="0.00 0.00 252.00 232.00" xmlns="http://www.w3.org/2000/svg" xmlns:xlink="http://www.w3.org/1999/xlink">
<g id="graph0" class="graph" transform="scale(1 1) rotate(0) translate(21.6 210)">
<title>StackBase</title>
<!-- Empty[T] -->
<g id="node1" class="node">
<title>Empty[T]</title>
<path fill="#2d2d2d" stroke="#b39ddb" d="M146.72,-188.4C146.72,-188.4 58.37,-188.4 58.37,-188.4 52.38,-188.4 46.38,-182.4 46.38,-176.4 46.38,-176.4 46.38,-142.2 46.38,-142.2 46.38,-136.2 52.38,-130.2 58.38,-130.2 58.38,-130.2 146.72,-130.2 146.72,-130.2 152.72,-130.2 158.72,-136.2 158.72,-142.2 158.72,-142.2 158.72,-176.4 158.72,-176.4 158.72,-182.4 152.72,-188.4 146.72,-188.4"/>
<text xml:space="preserve" text-anchor="middle" x="102.55" y="-153.5" font-family="sans-serif" font-size="14.00" fill="#e0e0e0">Empty[T]</text>
</g>
<!-- NonEmpty[T] -->
<g id="node2" class="node">
<title>NonEmpty[T]</title>
<path fill="#2d2d2d" stroke="#b39ddb" d="M125.1,-58.2C125.1,-58.2 12,-58.2 12,-58.2 6,-58.2 0,-52.2 0,-46.2 0,-46.2 0,-12 0,-12 0,-6 6,0 12,0 12,0 125.1,0 125.1,0 131.1,0 137.1,-6 137.1,-12 137.1,-12 137.1,-46.2 137.1,-46.2 137.1,-52.2 131.1,-58.2 125.1,-58.2"/>
<text xml:space="preserve" text-anchor="middle" x="68.55" y="-23.3" font-family="sans-serif" font-size="14.00" fill="#e0e0e0">NonEmpty[T]</text>
</g>
<!-- Empty[T]&#45;&gt;NonEmpty[T] -->
<g id="edge1" class="edge">
<title>Empty[T]&#45;&gt;NonEmpty[T]:e</title>
<path fill="none" stroke="#b0b0b0" d="M121.77,-129.95C143.31,-96.07 172.38,-42.54 149.14,-31.24"/>
<polygon fill="#b0b0b0" stroke="#b0b0b0" points="150.07,-27.86 139.59,-29.39 148.74,-34.73 150.07,-27.86"/>
</g>
<!-- NonEmpty[T]&#45;&gt;Empty[T] -->
<g id="edge2" class="edge">
<title>NonEmpty[T]&#45;&gt;Empty[T]</title>
<path fill="none" stroke="#b0b0b0" d="M76.07,-58.47C80.78,-76.22 86.91,-99.33 92.09,-118.84"/>
<polygon fill="#b0b0b0" stroke="#b0b0b0" points="88.67,-119.62 94.62,-128.39 95.44,-117.82 88.67,-119.62"/>
</g>
<!-- NonEmpty[T]&#45;&gt;NonEmpty[T] -->
<g id="edge3" class="edge">
<title>NonEmpty[T]&#45;&gt;NonEmpty[T]:e</title>
<path fill="none" stroke="#b0b0b0" d="M137.25,-52.43C174.75,-56.58 209.1,-48.81 209.1,-29.1 209.1,0.4 169.68,3.16 144.42,-20.8"/>
<polygon fill="#b0b0b0" stroke="#b0b0b0" points="142.1,-18.15 138.1,-27.97 147.34,-22.78 142.1,-18.15"/>
</g>
</g>
</svg>
