<?xml version="1.0" encoding="UTF-8" standalone="no"?>
<!DOCTYPE svg PUBLIC "-//W3C//DTD SVG 1.1//EN"
 "http://www.w3.org/Graphics/SVG/1.1/DTD/svg11.dtd">
<!-- Generated by graphviz version 14.1.0 (20251206.1807)
 -->
<!-- Title: ManagerContext Pages: 1 -->
<svg width="311pt" height="362pt"
 viewBox="0.00 0.00 311.00 362.00" xmlns="http://www.w3.org/2000/svg" xmlns:xlink="http://www.w3.org/1999/xlink">
<g id="graph0" class="graph" transform="scale(1 1) rotate(0) translate(21.6 340.2)">
<title>ManagerContext</title>
<!-- ManagerUninitialized[MaxThreads] -->
<g id="node1" class="node">
<title>ManagerUninitialized[MaxThreads]</title>
<path fill="#2d2d2d" stroke="#b39ddb" d="M255.6,-318.6C255.6,-318.6 12,-318.6 12,-318.6 6,-318.6 0,-312.6 0,-306.6 0,-306.6 0,-272.4 0,-272.4 0,-266.4 6,-260.4 12,-260.4 12,-260.4 255.6,-260.4 255.6,-260.4 261.6,-260.4 267.6,-266.4 267.6,-272.4 267.6,-272.4 267.6,-306.6 267.6,-306.6 267.6,-312.6 261.6,-318.6 255.6,-318.6"/>
<text xml:space="preserve" text-anchor="middle" x="133.8" y="-283.7" font-family="sans-serif" font-size="14.00" fill="#e0e0e0">ManagerUninitialized[MaxThreads]</text>
</g>
<!-- ManagerReady[MaxThreads] -->
<g id="node2" class="node">
<title>ManagerReady[MaxThreads]</title>
<path fill="#2d2d2d" stroke="#b39ddb" d="M238.73,-188.4C238.73,-188.4 28.87,-188.4 28.87,-188.4 22.88,-188.4 16.88,-182.4 16.88,-176.4 16.88,-176.4 16.88,-142.2 16.88,-142.2 16.88,-136.2 22.88,-130.2 28.88,-130.2 28.88,-130.2 238.73,-130.2 238.73,-130.2 244.73,-130.2 250.73,-136.2 250.73,-142.2 250.73,-142.2 250.73,-176.4 250.73,-176.4 250.73,-182.4 244.73,-188.4 238.73,-188.4"/>
<text xml:space="preserve" text-anchor="middle" x="133.8" y="-153.5" font-family="sans-serif" font-size="14.00" fill="#e0e0e0">ManagerReady[MaxThreads]</text>
</g>
<!-- ManagerUninitialized[MaxThreads]&#45;&gt;ManagerReady[MaxThreads] -->
<g id="edge1" class="edge">
<title>ManagerUninitialized[MaxThreads]&#45;&gt;ManagerReady[MaxThreads]</title>
<path fill="none" stroke="#b0b0b0" d="M133.8,-260.05C133.8,-242.37 133.8,-219.39 133.8,-199.95"/>
<polygon fill="#b0b0b0" stroke="#b0b0b0" points="137.3,-200.19 133.8,-190.19 130.3,-200.19 137.3,-200.19"/>
</g>
<!-- ManagerShutdown[MaxThreads] -->
<g id="node3" class="node">
<title>ManagerShutdown[MaxThreads]</title>
<path fill="#2d2d2d" stroke="#b39ddb" d="M249.23,-58.2C249.23,-58.2 18.38,-58.2 18.38,-58.2 12.38,-58.2 6.38,-52.2 6.38,-46.2 6.38,-46.2 6.38,-12 6.38,-12 6.38,-6 12.38,0 18.38,0 18.38,0 249.23,0 249.23,0 255.23,0 261.23,-6 261.23,-12 261.23,-12 261.23,-46.2 261.23,-46.2 261.23,-52.2 255.23,-58.2 249.23,-58.2"/>
<text xml:space="preserve" text-anchor="middle" x="133.8" y="-23.3" font-family="sans-serif" font-size="14.00" fill="#e0e0e0">ManagerShutdown[MaxThreads]</text>
</g>
<!-- ManagerReady[MaxThreads]&#45;&gt;ManagerShutdown[MaxThreads] -->
<g id="edge2" class="edge">
<title>ManagerReady[MaxThreads]&#45;&gt;ManagerShutdown[MaxThreads]</title>
<path fill="none" stroke="#b0b0b0" d="M133.8,-129.85C133.8,-112.17 133.8,-89.19 133.8,-69.75"/>
<polygon fill="#b0b0b0" stroke="#b0b0b0" points="137.3,-69.99 133.8,-59.99 130.3,-69.99 137.3,-69.99"/>
</g>
</g>
</svg>
