<?xml version="1.0" encoding="UTF-8" standalone="no"?>
<!DOCTYPE svg PUBLIC "-//W3C//DTD SVG 1.1//EN"
 "http://www.w3.org/Graphics/SVG/1.1/DTD/svg11.dtd">
<!-- Generated by graphviz version 14.1.0 (20251206.1807)
 -->
<!-- Title: Item Pages: 1 -->
<svg width="365pt" height="362pt"
 viewBox="0.00 0.00 365.00 362.00" xmlns="http://www.w3.org/2000/svg" xmlns:xlink="http://www.w3.org/1999/xlink">
<g id="graph0" class="graph" transform="scale(1 1) rotate(0) translate(21.6 340.2)">
<title>Item</title>
<!-- Unprocessed[T] -->
<g id="node1" class="node">
<title>Unprocessed[T]</title>
<path fill="#2d2d2d" stroke="#b39ddb" d="M232.1,-318.6C232.1,-318.6 103.25,-318.6 103.25,-318.6 97.25,-318.6 91.25,-312.6 91.25,-306.6 91.25,-306.6 91.25,-272.4 91.25,-272.4 91.25,-266.4 97.25,-260.4 103.25,-260.4 103.25,-260.4 232.1,-260.4 232.1,-260.4 238.1,-260.4 244.1,-266.4 244.1,-272.4 244.1,-272.4 244.1,-306.6 244.1,-306.6 244.1,-312.6 238.1,-318.6 232.1,-318.6"/>
<text xml:space="preserve" text-anchor="middle" x="167.68" y="-283.7" font-family="sans-serif" font-size="14.00" fill="#e0e0e0">Unprocessed[T]</text>
</g>
<!-- Processing[T] -->
<g id="node2" class="node">
<title>Processing[T]</title>
<path fill="#2d2d2d" stroke="#b39ddb" d="M225.73,-188.4C225.73,-188.4 109.62,-188.4 109.62,-188.4 103.62,-188.4 97.63,-182.4 97.63,-176.4 97.63,-176.4 97.63,-142.2 97.63,-142.2 97.63,-136.2 103.63,-130.2 109.63,-130.2 109.63,-130.2 225.73,-130.2 225.73,-130.2 231.73,-130.2 237.73,-136.2 237.73,-142.2 237.73,-142.2 237.73,-176.4 237.73,-176.4 237.73,-182.4 231.73,-188.4 225.73,-188.4"/>
<text xml:space="preserve" text-anchor="middle" x="167.68" y="-153.5" font-family="sans-serif" font-size="14.00" fill="#e0e0e0">Processing[T]</text>
</g>
<!-- Unprocessed[T]&#45;&gt;Processing[T] -->
<g id="edge1" class="edge">
<title>Unprocessed[T]&#45;&gt;Processing[T]</title>
<path fill="none" stroke="#b0b0b0" d="M167.68,-260.05C167.68,-242.37 167.68,-219.39 167.68,-199.95"/>
<polygon fill="#b0b0b0" stroke="#b0b0b0" points="171.18,-200.19 167.68,-190.19 164.18,-200.19 171.18,-200.19"/>
</g>
<!-- Completed[T] -->
<g id="node3" class="node">
<title>Completed[T]</title>
<path fill="#2d2d2d" stroke="#b39ddb" d="M127.35,-58.2C127.35,-58.2 12,-58.2 12,-58.2 6,-58.2 0,-52.2 0,-46.2 0,-46.2 0,-12 0,-12 0,-6 6,0 12,0 12,0 127.35,0 127.35,0 133.35,0 139.35,-6 139.35,-12 139.35,-12 139.35,-46.2 139.35,-46.2 139.35,-52.2 133.35,-58.2 127.35,-58.2"/>
<text xml:space="preserve" text-anchor="middle" x="69.68" y="-23.3" font-family="sans-serif" font-size="14.00" fill="#e0e0e0">Completed[T]</text>
</g>
<!-- Processing[T]&#45;&gt;Completed[T] -->
<g id="edge2" class="edge">
<title>Processing[T]&#45;&gt;Completed[T]</title>
<path fill="none" stroke="#b0b0b0" d="M145.93,-129.85C131.91,-111.51 113.52,-87.46 98.32,-67.57"/>
<polygon fill="#b0b0b0" stroke="#b0b0b0" points="101.14,-65.49 92.28,-59.67 95.58,-69.74 101.14,-65.49"/>
</g>
<!-- Failed[T] -->
<g id="node4" class="node">
<title>Failed[T]</title>
<path fill="#2d2d2d" stroke="#b39ddb" d="M309.73,-58.2C309.73,-58.2 223.62,-58.2 223.62,-58.2 217.62,-58.2 211.62,-52.2 211.62,-46.2 211.62,-46.2 211.62,-12 211.62,-12 211.62,-6 217.62,0 223.62,0 223.62,0 309.73,0 309.73,0 315.73,0 321.73,-6 321.73,-12 321.73,-12 321.73,-46.2 321.73,-46.2 321.73,-52.2 315.73,-58.2 309.73,-58.2"/>
<text xml:space="preserve" text-anchor="middle" x="266.68" y="-23.3" font-family="sans-serif" font-size="14.00" fill="#e0e0e0">Failed[T]</text>
</g>
<!-- Processing[T]&#45;&gt;Failed[T] -->
<g id="edge3" class="edge">
<title>Processing[T]&#45;&gt;Failed[T]</title>
<path fill="none" stroke="#b0b0b0" d="M189.65,-129.85C203.81,-111.51 222.38,-87.46 237.74,-67.57"/>
<polygon fill="#b0b0b0" stroke="#b0b0b0" points="240.5,-69.72 243.84,-59.67 234.96,-65.45 240.5,-69.72"/>
</g>
</g>
</svg>
