<?xml version="1.0" encoding="UTF-8" standalone="no"?>
<!DOCTYPE svg PUBLIC "-//W3C//DTD SVG 1.1//EN"
 "http://www.w3.org/Graphics/SVG/1.1/DTD/svg11.dtd">
<!-- Generated by graphviz version 14.1.0 (20251206.1807)
 -->
<!-- Title: NeutralizeContext Pages: 1 -->
<svg width="273pt" height="362pt"
 viewBox="0.00 0.00 273.00 362.00" xmlns="http://www.w3.org/2000/svg" xmlns:xlink="http://www.w3.org/1999/xlink">
<g id="graph0" class="graph" transform="scale(1 1) rotate(0) translate(21.6 340.2)">
<title>NeutralizeContext</title>
<!-- ScanStart[MaxThreads] -->
<g id="node1" class="node">
<title>ScanStart[MaxThreads]</title>
<path fill="#2d2d2d" stroke="#b39ddb" d="M203.1,-318.6C203.1,-318.6 27,-318.6 27,-318.6 21,-318.6 15,-312.6 15,-306.6 15,-306.6 15,-272.4 15,-272.4 15,-266.4 21,-260.4 27,-260.4 27,-260.4 203.1,-260.4 203.1,-260.4 209.1,-260.4 215.1,-266.4 215.1,-272.4 215.1,-272.4 215.1,-306.6 215.1,-306.6 215.1,-312.6 209.1,-318.6 203.1,-318.6"/>
<text xml:space="preserve" text-anchor="middle" x="115.05" y="-283.7" font-family="sans-serif" font-size="14.00" fill="#e0e0e0">ScanStart[MaxThreads]</text>
</g>
<!-- Scanning[MaxThreads] -->
<g id="node2" class="node">
<title>Scanning[MaxThreads]</title>
<path fill="#2d2d2d" stroke="#b39ddb" d="M201.6,-188.4C201.6,-188.4 28.5,-188.4 28.5,-188.4 22.5,-188.4 16.5,-182.4 16.5,-176.4 16.5,-176.4 16.5,-142.2 16.5,-142.2 16.5,-136.2 22.5,-130.2 28.5,-130.2 28.5,-130.2 201.6,-130.2 201.6,-130.2 207.6,-130.2 213.6,-136.2 213.6,-142.2 213.6,-142.2 213.6,-176.4 213.6,-176.4 213.6,-182.4 207.6,-188.4 201.6,-188.4"/>
<text xml:space="preserve" text-anchor="middle" x="115.05" y="-153.5" font-family="sans-serif" font-size="14.00" fill="#e0e0e0">Scanning[MaxThreads]</text>
</g>
<!-- ScanStart[MaxThreads]&#45;&gt;Scanning[MaxThreads] -->
<g id="edge1" class="edge">
<title>ScanStart[MaxThreads]&#45;&gt;Scanning[MaxThreads]</title>
<path fill="none" stroke="#b0b0b0" d="M115.05,-260.05C115.05,-242.37 115.05,-219.39 115.05,-199.95"/>
<polygon fill="#b0b0b0" stroke="#b0b0b0" points="118.55,-200.19 115.05,-190.19 111.55,-200.19 118.55,-200.19"/>
</g>
<!-- ScanComplete[MaxThreads] -->
<g id="node3" class="node">
<title>ScanComplete[MaxThreads]</title>
<path fill="#2d2d2d" stroke="#b39ddb" d="M218.1,-58.2C218.1,-58.2 12,-58.2 12,-58.2 6,-58.2 0,-52.2 0,-46.2 0,-46.2 0,-12 0,-12 0,-6 6,0 12,0 12,0 218.1,0 218.1,0 224.1,0 230.1,-6 230.1,-12 230.1,-12 230.1,-46.2 230.1,-46.2 230.1,-52.2 224.1,-58.2 218.1,-58.2"/>
<text xml:space="preserve" text-anchor="middle" x="115.05" y="-23.3" font-family="sans-serif" font-size="14.00" fill="#e0e0e0">ScanComplete[MaxThreads]</text>
</g>
<!-- Scanning[MaxThreads]&#45;&gt;ScanComplete[MaxThreads] -->
<g id="edge2" class="edge">
<title>Scanning[MaxThreads]&#45;&gt;ScanComplete[MaxThreads]</title>
<path fill="none" stroke="#b0b0b0" d="M115.05,-129.85C115.05,-112.17 115.05,-89.19 115.05,-69.75"/>
<polygon fill="#b0b0b0" stroke="#b0b0b0" points="118.55,-69.99 115.05,-59.99 111.55,-69.99 118.55,-69.99"/>
</g>
</g>
</svg>
