<?xml version="1.0" encoding="UTF-8" standalone="no"?>
<!DOCTYPE svg PUBLIC "-//W3C//DTD SVG 1.1//EN"
 "http://www.w3.org/Graphics/SVG/1.1/DTD/svg11.dtd">
<!-- Generated by graphviz version 14.1.0 (20251206.1807)
 -->
<!-- Title: RetireContext Pages: 1 -->
<svg width="259pt" height="232pt"
 viewBox="0.00 0.00 259.00 232.00" xmlns="http://www.w3.org/2000/svg" xmlns:xlink="http://www.w3.org/1999/xlink">
<g id="graph0" class="graph" transform="scale(1 1) rotate(0) translate(21.6 210)">
<title>RetireContext</title>
<!-- RetireReady[MaxThreads] -->
<g id="node1" class="node">
<title>RetireReady[MaxThreads]</title>
<path fill="#2d2d2d" stroke="#b39ddb" d="M203.85,-188.4C203.85,-188.4 12,-188.4 12,-188.4 6,-188.4 0,-182.4 0,-176.4 0,-176.4 0,-142.2 0,-142.2 0,-136.2 6,-130.2 12,-130.2 12,-130.2 203.85,-130.2 203.85,-130.2 209.85,-130.2 215.85,-136.2 215.85,-142.2 215.85,-142.2 215.85,-176.4 215.85,-176.4 215.85,-182.4 209.85,-188.4 203.85,-188.4"/>
<text xml:space="preserve" text-anchor="middle" x="107.93" y="-153.5" font-family="sans-serif" font-size="14.00" fill="#e0e0e0">RetireReady[MaxThreads]</text>
</g>
<!-- Retired[MaxThreads] -->
<g id="node2" class="node">
<title>Retired[MaxThreads]</title>
<path fill="#2d2d2d" stroke="#b39ddb" d="M188.1,-58.2C188.1,-58.2 27.75,-58.2 27.75,-58.2 21.75,-58.2 15.75,-52.2 15.75,-46.2 15.75,-46.2 15.75,-12 15.75,-12 15.75,-6 21.75,0 27.75,0 27.75,0 188.1,0 188.1,0 194.1,0 200.1,-6 200.1,-12 200.1,-12 200.1,-46.2 200.1,-46.2 200.1,-52.2 194.1,-58.2 188.1,-58.2"/>
<text xml:space="preserve" text-anchor="middle" x="107.93" y="-23.3" font-family="sans-serif" font-size="14.00" fill="#e0e0e0">Retired[MaxThreads]</text>
</g>
<!-- RetireReady[MaxThreads]&#45;&gt;Retired[MaxThreads] -->
<g id="edge1" class="edge">
<title>RetireReady[MaxThreads]&#45;&gt;Retired[MaxThreads]</title>
<path fill="none" stroke="#b0b0b0" d="M107.93,-129.85C107.93,-112.17 107.93,-89.19 107.93,-69.75"/>
<polygon fill="#b0b0b0" stroke="#b0b0b0" points="111.43,-69.99 107.93,-59.99 104.43,-69.99 111.43,-69.99"/>
</g>
</g>
</svg>
