<?xml version="1.0" encoding="UTF-8" standalone="no"?>
<!DOCTYPE svg PUBLIC "-//W3C//DTD SVG 1.1//EN"
 "http://www.w3.org/Graphics/SVG/1.1/DTD/svg11.dtd">
<!-- Generated by graphviz version 14.1.0 (20251206.1807)
 -->
<!-- Title: SignalHandlerContext Pages: 1 -->
<svg width="215pt" height="232pt"
 viewBox="0.00 0.00 215.00 232.00" xmlns="http://www.w3.org/2000/svg" xmlns:xlink="http://www.w3.org/1999/xlink">
<g id="graph0" class="graph" transform="scale(1 1) rotate(0) translate(21.6 210)">
<title>SignalHandlerContext</title>
<!-- HandlerUninstalled -->
<g id="node1" class="node">
<title>HandlerUninstalled</title>
<path fill="#2d2d2d" stroke="#b39ddb" d="M159.6,-188.4C159.6,-188.4 12,-188.4 12,-188.4 6,-188.4 0,-182.4 0,-176.4 0,-176.4 0,-142.2 0,-142.2 0,-136.2 6,-130.2 12,-130.2 12,-130.2 159.6,-130.2 159.6,-130.2 165.6,-130.2 171.6,-136.2 171.6,-142.2 171.6,-142.2 171.6,-176.4 171.6,-176.4 171.6,-182.4 165.6,-188.4 159.6,-188.4"/>
<text xml:space="preserve" text-anchor="middle" x="85.8" y="-153.5" font-family="sans-serif" font-size="14.00" fill="#e0e0e0">HandlerUninstalled</text>
</g>
<!-- HandlerInstalled -->
<g id="node2" class="node">
<title>HandlerInstalled</title>
<path fill="#2d2d2d" stroke="#b39ddb" d="M151.35,-58.2C151.35,-58.2 20.25,-58.2 20.25,-58.2 14.25,-58.2 8.25,-52.2 8.25,-46.2 8.25,-46.2 8.25,-12 8.25,-12 8.25,-6 14.25,0 20.25,0 20.25,0 151.35,0 151.35,0 157.35,0 163.35,-6 163.35,-12 163.35,-12 163.35,-46.2 163.35,-46.2 163.35,-52.2 157.35,-58.2 151.35,-58.2"/>
<text xml:space="preserve" text-anchor="middle" x="85.8" y="-23.3" font-family="sans-serif" font-size="14.00" fill="#e0e0e0">HandlerInstalled</text>
</g>
<!-- HandlerUninstalled&#45;&gt;HandlerInstalled -->
<g id="edge1" class="edge">
<title>HandlerUninstalled&#45;&gt;HandlerInstalled</title>
<path fill="none" stroke="#b0b0b0" d="M85.8,-129.85C85.8,-112.17 85.8,-89.19 85.8,-69.75"/>
<polygon fill="#b0b0b0" stroke="#b0b0b0" points="89.3,-69.99 85.8,-59.99 82.3,-69.99 89.3,-69.99"/>
</g>
</g>
</svg>
