<?xml version="1.0" encoding="UTF-8" standalone="no"?>
<!DOCTYPE svg PUBLIC "-//W3C//DTD SVG 1.1//EN"
 "http://www.w3.org/Graphics/SVG/1.1/DTD/svg11.dtd">
<!-- Generated by graphviz version 14.1.0 (20251206.1807)
 -->
<!-- Title: SlotContext Pages: 1 -->
<svg width="339pt" height="492pt"
 viewBox="0.00 0.00 339.00 492.00" xmlns="http://www.w3.org/2000/svg" xmlns:xlink="http://www.w3.org/1999/xlink">
<g id="graph0" class="graph" transform="scale(1 1) rotate(0) translate(21.6 470.4)">
<title>SlotContext</title>
<!-- Free[MaxThreads] -->
<g id="node1" class="node">
<title>Free[MaxThreads]</title>
<path fill="#2d2d2d" stroke="#b39ddb" d="M272.35,-448.8C272.35,-448.8 127.75,-448.8 127.75,-448.8 121.75,-448.8 115.75,-442.8 115.75,-436.8 115.75,-436.8 115.75,-402.6 115.75,-402.6 115.75,-396.6 121.75,-390.6 127.75,-390.6 127.75,-390.6 272.35,-390.6 272.35,-390.6 278.35,-390.6 284.35,-396.6 284.35,-402.6 284.35,-402.6 284.35,-436.8 284.35,-436.8 284.35,-442.8 278.35,-448.8 272.35,-448.8"/>
<text xml:space="preserve" text-anchor="middle" x="200.05" y="-413.9" font-family="sans-serif" font-size="14.00" fill="#e0e0e0">Free[MaxThreads]</text>
</g>
<!-- Claiming[MaxThreads] -->
<g id="node2" class="node">
<title>Claiming[MaxThreads]</title>
<path fill="#2d2d2d" stroke="#b39ddb" d="M182.1,-318.6C182.1,-318.6 12,-318.6 12,-318.6 6,-318.6 0,-312.6 0,-306.6 0,-306.6 0,-272.4 0,-272.4 0,-266.4 6,-260.4 12,-260.4 12,-260.4 182.1,-260.4 182.1,-260.4 188.1,-260.4 194.1,-266.4 194.1,-272.4 194.1,-272.4 194.1,-306.6 194.1,-306.6 194.1,-312.6 188.1,-318.6 182.1,-318.6"/>
<text xml:space="preserve" text-anchor="middle" x="97.05" y="-283.7" font-family="sans-serif" font-size="14.00" fill="#e0e0e0">Claiming[MaxThreads]</text>
</g>
<!-- Free[MaxThreads]&#45;&gt;Claiming[MaxThreads] -->
<g id="edge1" class="edge">
<title>Free[MaxThreads]&#45;&gt;Claiming[MaxThreads]</title>
<path fill="none" stroke="#b0b0b0" d="M177.19,-390.25C162.39,-371.82 142.96,-347.64 126.94,-327.7"/>
<polygon fill="#b0b0b0" stroke="#b0b0b0" points="129.78,-325.66 120.79,-320.05 124.33,-330.04 129.78,-325.66"/>
</g>
<!-- Active[MaxThreads] -->
<g id="node3" class="node">
<title>Active[MaxThreads]</title>
<path fill="#2d2d2d" stroke="#b39ddb" d="M177.85,-188.4C177.85,-188.4 24.25,-188.4 24.25,-188.4 18.25,-188.4 12.25,-182.4 12.25,-176.4 12.25,-176.4 12.25,-142.2 12.25,-142.2 12.25,-136.2 18.25,-130.2 24.25,-130.2 24.25,-130.2 177.85,-130.2 177.85,-130.2 183.85,-130.2 189.85,-136.2 189.85,-142.2 189.85,-142.2 189.85,-176.4 189.85,-176.4 189.85,-182.4 183.85,-188.4 177.85,-188.4"/>
<text xml:space="preserve" text-anchor="middle" x="101.05" y="-153.5" font-family="sans-serif" font-size="14.00" fill="#e0e0e0">Active[MaxThreads]</text>
</g>
<!-- Claiming[MaxThreads]&#45;&gt;Active[MaxThreads] -->
<g id="edge2" class="edge">
<title>Claiming[MaxThreads]&#45;&gt;Active[MaxThreads]</title>
<path fill="none" stroke="#b0b0b0" d="M97.94,-260.05C98.49,-242.37 99.21,-219.39 99.81,-199.95"/>
<polygon fill="#b0b0b0" stroke="#b0b0b0" points="103.3,-200.29 100.12,-190.19 96.31,-200.07 103.3,-200.29"/>
</g>
<!-- Draining[MaxThreads] -->
<g id="node4" class="node">
<title>Draining[MaxThreads]</title>
<path fill="#2d2d2d" stroke="#b39ddb" d="M283.6,-58.2C283.6,-58.2 116.5,-58.2 116.5,-58.2 110.5,-58.2 104.5,-52.2 104.5,-46.2 104.5,-46.2 104.5,-12 104.5,-12 104.5,-6 110.5,0 116.5,0 116.5,0 283.6,0 283.6,0 289.6,0 295.6,-6 295.6,-12 295.6,-12 295.6,-46.2 295.6,-46.2 295.6,-52.2 289.6,-58.2 283.6,-58.2"/>
<text xml:space="preserve" text-anchor="middle" x="200.05" y="-23.3" font-family="sans-serif" font-size="14.00" fill="#e0e0e0">Draining[MaxThreads]</text>
</g>
<!-- Active[MaxThreads]&#45;&gt;Draining[MaxThreads] -->
<g id="edge3" class="edge">
<title>Active[MaxThreads]&#45;&gt;Draining[MaxThreads]</title>
<path fill="none" stroke="#b0b0b0" d="M123.02,-129.85C137.18,-111.51 155.76,-87.46 171.11,-67.57"/>
<polygon fill="#b0b0b0" stroke="#b0b0b0" points="173.87,-69.72 177.22,-59.67 168.33,-65.45 173.87,-69.72"/>
</g>
<!-- Draining[MaxThreads]&#45;&gt;Free[MaxThreads] -->
<g id="edge4" class="edge">
<title>Draining[MaxThreads]&#45;&gt;Free[MaxThreads]</title>
<path fill="none" stroke="#b0b0b0" d="M209.29,-58.66C215.25,-78.5 222.53,-105.67 226.05,-130.2 230.55,-161.55 234.8,-286.23 230.05,-318.6 227.04,-339.11 220.74,-361.26 214.69,-379.49"/>
<polygon fill="#b0b0b0" stroke="#b0b0b0" points="211.41,-378.27 211.47,-388.86 218.03,-380.54 211.41,-378.27"/>
</g>
</g>
</svg>
